<svg xmlns="http://www.w3.org/2000/svg" viewBox="0 0 512 512">
  <!-- Red background -->
  <rect width="512" height="512" fill="#e8002d"/>

  <!-- F1 text -->
  <text
    x="256"
    y="330"
    text-anchor="middle"
    dominant-baseline="middle"
    font-family="Arial Black, Arial, sans-serif"
    font-weight="900"
    font-size="252"
    fill="white"
    letter-spacing="-13"
  >F1</text>

  <!-- Checkered strip (2 rows x 16 cols) -->
  <g transform="translate(0,448)">
    <rect x="0"   y="0"  width="32" height="32" fill="#000000"/>
    <rect x="32"  y="0"  width="32" height="32" fill="#ffffff"/>
    <rect x="64"  y="0"  width="32" height="32" fill="#000000"/>
    <rect x="96"  y="0"  width="32" height="32" fill="#ffffff"/>
    <rect x="128" y="0"  width="32" height="32" fill="#000000"/>
    <rect x="160" y="0"  width="32" height="32" fill="#ffffff"/>
    <rect x="192" y="0"  width="32" height="32" fill="#000000"/>
    <rect x="224" y="0"  width="32" height="32" fill="#ffffff"/>
    <rect x="256" y="0"  width="32" height="32" fill="#000000"/>
    <rect x="288" y="0"  width="32" height="32" fill="#ffffff"/>
    <rect x="320" y="0"  width="32" height="32" fill="#000000"/>
    <rect x="352" y="0"  width="32" height="32" fill="#ffffff"/>
    <rect x="384" y="0"  width="32" height="32" fill="#000000"/>
    <rect x="416" y="0"  width="32" height="32" fill="#ffffff"/>
    <rect x="448" y="0"  width="32" height="32" fill="#000000"/>
    <rect x="480" y="0"  width="32" height="32" fill="#ffffff"/>
    <rect x="0"   y="32" width="32" height="32" fill="#ffffff"/>
    <rect x="32"  y="32" width="32" height="32" fill="#000000"/>
    <rect x="64"  y="32" width="32" height="32" fill="#ffffff"/>
    <rect x="96"  y="32" width="32" height="32" fill="#000000"/>
    <rect x="128" y="32" width="32" height="32" fill="#ffffff"/>
    <rect x="160" y="32" width="32" height="32" fill="#000000"/>
    <rect x="192" y="32" width="32" height="32" fill="#ffffff"/>
    <rect x="224" y="32" width="32" height="32" fill="#000000"/>
    <rect x="256" y="32" width="32" height="32" fill="#ffffff"/>
    <rect x="288" y="32" width="32" height="32" fill="#000000"/>
    <rect x="320" y="32" width="32" height="32" fill="#ffffff"/>
    <rect x="352" y="32" width="32" height="32" fill="#000000"/>
    <rect x="384" y="32" width="32" height="32" fill="#ffffff"/>
    <rect x="416" y="32" width="32" height="32" fill="#000000"/>
    <rect x="448" y="32" width="32" height="32" fill="#ffffff"/>
    <rect x="480" y="32" width="32" height="32" fill="#000000"/>
  </g>
</svg>
